<svg xmlns="http://www.w3.org/2000/svg" viewBox="0 0 58.65 58.65"><title>icon-only</title><g id="Layer_2" data-name="Layer 2"><g id="Layer_1-2" data-name="Layer 1"><path d="M52.82,0h-47A5.82,5.82,0,0,0,0,5.82v47a5.82,5.82,0,0,0,5.82,5.82h9.82l-.79-15.84a.51.51,0,0,1,.47-.6h28a.51.51,0,0,1,.47.6L43,58.65h9.82a5.82,5.82,0,0,0,5.82-5.82v-47A5.82,5.82,0,0,0,52.82,0ZM49.36,29.71,47,40.41a.64.64,0,0,1-.57.51H12.23a.64.64,0,0,1-.57-.51L9.29,29.71c-.08-.36.09-.66.39-.66H26.35a3,3,0,0,1,2.18-1V23.78a.17.17,0,0,1,.17-.17h.1c0-1,0-1.8,0-2.51a4.28,4.28,0,0,1,.78-2.3,1.28,1.28,0,0,1-.11-1.66l3.72-4.94a1.28,1.28,0,1,1,2,1.54l-3.72,4.94a1.27,1.27,0,0,1-.93.5A5.46,5.46,0,0,0,30,20.85v2.75a.17.17,0,0,1,.17.17V28a3,3,0,0,1,2.11,1H49C49.26,29.05,49.44,29.35,49.36,29.71Z"/><rect x="30.49" y="49.99" width="8.28" height="1" rx="0.5" ry="0.5" transform="translate(-15.86 85.12) rotate(-90)"/><rect x="25.18" y="49.99" width="8.28" height="1" rx="0.5" ry="0.5" transform="translate(-21.17 79.81) rotate(-90)"/><rect x="19.88" y="49.99" width="8.28" height="1" rx="0.5" ry="0.5" transform="translate(-26.47 74.51) rotate(-90)"/><path d="M27.05,34.79h2.06V32.73H27.38A8,8,0,0,0,27.05,34.79Z"/><path d="M26.64,35.21H24.58a5,5,0,0,0,.58,2.06h1.78A10.37,10.37,0,0,1,26.64,35.21Z"/><path d="M27.51,32.32h1.61V30.5C28.46,30.62,27.88,31.33,27.51,32.32Z"/><path d="M29.53,30.5v1.82h1.61C30.77,31.33,30.19,30.62,29.53,30.5Z"/><path d="M31.26,32.73H29.53v2.06h2.06A8,8,0,0,0,31.26,32.73Z"/><path d="M32,35.21a8,8,0,0,1-.29,2.06h1.78a5,5,0,0,0,.58-2.06Z"/><path d="M27.38,37.27h1.73V35.21H27.05A8,8,0,0,0,27.38,37.27Z"/><path d="M26.93,32.73H25.15a5,5,0,0,0-.58,2.06h2.06A10.37,10.37,0,0,1,26.93,32.73Z"/><path d="M29.12,39.5V37.68H27.51C27.88,38.67,28.46,39.38,29.12,39.5Z"/><path d="M27.05,37.68H25.4a4.82,4.82,0,0,0,3,2A4.07,4.07,0,0,1,27.05,37.68Z"/><path d="M30.23,39.67a4.55,4.55,0,0,0,3-2H31.55A3.59,3.59,0,0,1,30.23,39.67Z"/><path d="M31.59,32.32h1.65a4.82,4.82,0,0,0-3-2A4.07,4.07,0,0,1,31.59,32.32Z"/><path d="M28.42,30.33a4.55,4.55,0,0,0-3,2h1.65A3.59,3.59,0,0,1,28.42,30.33Z"/><path d="M29.53,37.68V39.5c.66-.12,1.24-.83,1.61-1.82Z"/><path d="M31.59,35.21H29.53v2.06h1.73A8,8,0,0,0,31.59,35.21Z"/><path d="M32,34.79h2.06a5,5,0,0,0-.58-2.06H31.72A10.37,10.37,0,0,1,32,34.79Z"/></g></g></svg>